<svg width="55" height="28" viewBox="0 0 55 28" fill="none" xmlns="http://www.w3.org/2000/svg">
<g filter="url(#filter0_d_648_282)">
<rect x="4" y="3" width="47" height="20" rx="4" fill="#FE4F60"/>
<path d="M15.1523 13.0566H11.4551V16.0801H15.75V17H10.3301V8.46875H15.6914V9.39453H11.4551V12.1367H15.1523V13.0566ZM16.5996 13.7773C16.5996 12.8047 16.8301 12.0234 17.291 11.4336C17.752 10.8398 18.3555 10.543 19.1016 10.543C19.8438 10.543 20.4316 10.7969 20.8652 11.3047V8H21.9492V17H20.9531L20.9004 16.3203C20.4668 16.8516 19.8633 17.1172 19.0898 17.1172C18.3555 17.1172 17.7559 16.8164 17.291 16.2148C16.8301 15.6133 16.5996 14.8281 16.5996 13.8594V13.7773ZM17.6836 13.9004C17.6836 14.6191 17.832 15.1816 18.1289 15.5879C18.4258 15.9941 18.8359 16.1973 19.3594 16.1973C20.0469 16.1973 20.5488 15.8887 20.8652 15.2715V12.3594C20.541 11.7617 20.043 11.4629 19.3711 11.4629C18.8398 11.4629 18.4258 11.668 18.1289 12.0781C17.832 12.4883 17.6836 13.0957 17.6836 13.9004ZM24.8145 17H23.7305V10.6602H24.8145V17ZM23.6426 8.97852C23.6426 8.80273 23.6953 8.6543 23.8008 8.5332C23.9102 8.41211 24.0703 8.35156 24.2812 8.35156C24.4922 8.35156 24.6523 8.41211 24.7617 8.5332C24.8711 8.6543 24.9258 8.80273 24.9258 8.97852C24.9258 9.1543 24.8711 9.30078 24.7617 9.41797C24.6523 9.53516 24.4922 9.59375 24.2812 9.59375C24.0703 9.59375 23.9102 9.53516 23.8008 9.41797C23.6953 9.30078 23.6426 9.1543 23.6426 8.97852ZM28.0254 9.125V10.6602H29.209V11.498H28.0254V15.4297C28.0254 15.6836 28.0781 15.875 28.1836 16.0039C28.2891 16.1289 28.4688 16.1914 28.7227 16.1914C28.8477 16.1914 29.0195 16.168 29.2383 16.1211V17C28.9531 17.0781 28.6758 17.1172 28.4062 17.1172C27.9219 17.1172 27.5566 16.9707 27.3105 16.6777C27.0645 16.3848 26.9414 15.9688 26.9414 15.4297V11.498H25.7871V10.6602H26.9414V9.125H28.0254Z" fill="white"/>
<path d="M45.6 17.05H36.4C36.1787 17.05 36 17.2288 36 17.45V17.9C36 17.955 36.045 18 36.1 18H45.9C45.955 18 46 17.955 46 17.9V17.45C46 17.2288 45.8212 17.05 45.6 17.05ZM37.8213 16C37.8463 16 37.8713 15.9975 37.8963 15.9938L39.9987 15.625C40.0237 15.62 40.0475 15.6088 40.065 15.59L45.3637 10.2912C45.3753 10.2797 45.3845 10.2659 45.3908 10.2508C45.3971 10.2357 45.4003 10.2195 45.4003 10.2031C45.4003 10.1868 45.3971 10.1705 45.3908 10.1554C45.3845 10.1403 45.3753 10.1266 45.3637 10.115L43.2863 8.03625C43.2625 8.0125 43.2312 8 43.1975 8C43.1638 8 43.1325 8.0125 43.1088 8.03625L37.81 13.335C37.7912 13.3537 37.78 13.3762 37.775 13.4012L37.4062 15.5037C37.3941 15.5707 37.3984 15.6396 37.4189 15.7045C37.4394 15.7694 37.4754 15.8284 37.5237 15.8762C37.6062 15.9562 37.71 16 37.8213 16Z" fill="white"/>
</g>
<defs>
<filter id="filter0_d_648_282" x="0" y="0" width="55" height="28" filterUnits="userSpaceOnUse" color-interpolation-filters="sRGB">
<feFlood flood-opacity="0" result="BackgroundImageFix"/>
<feColorMatrix in="SourceAlpha" type="matrix" values="0 0 0 0 0 0 0 0 0 0 0 0 0 0 0 0 0 0 127 0" result="hardAlpha"/>
<feOffset dy="1"/>
<feGaussianBlur stdDeviation="2"/>
<feComposite in2="hardAlpha" operator="out"/>
<feColorMatrix type="matrix" values="0 0 0 0 0 0 0 0 0 0 0 0 0 0 0 0 0 0 0.25 0"/>
<feBlend mode="normal" in2="BackgroundImageFix" result="effect1_dropShadow_648_282"/>
<feBlend mode="normal" in="SourceGraphic" in2="effect1_dropShadow_648_282" result="shape"/>
</filter>
</defs>
</svg>
