<svg width="24" height="32" viewBox="0 0 24 32" fill="none" xmlns="http://www.w3.org/2000/svg">
<path d="M12 20C12.8366 20 13.6545 19.7519 14.3501 19.2871C15.0457 18.8223 15.5879 18.1617 15.908 17.3887C16.2282 16.6158 16.312 15.7653 16.1487 14.9447C15.9855 14.1242 15.5827 13.3705 14.9911 12.7789C14.3995 12.1873 13.6458 11.7845 12.8253 11.6213C12.0047 11.458 11.1542 11.5418 10.3813 11.862C9.60834 12.1821 8.9477 12.7243 8.4829 13.4199C8.0181 14.1155 7.77002 14.9334 7.77002 15.77C7.77002 16.8918 8.21568 17.9678 9.00896 18.761C9.80224 19.5543 10.8782 20 12 20ZM12 13.14C12.5202 13.14 13.0287 13.2942 13.4612 13.5832C13.8937 13.8722 14.2308 14.283 14.4298 14.7635C14.6289 15.2441 14.681 15.7729 14.5795 16.2831C14.478 16.7932 14.2275 17.2619 13.8597 17.6297C13.4919 17.9975 13.0233 18.248 12.5131 18.3494C12.0029 18.4509 11.4741 18.3988 10.9936 18.1998C10.513 18.0007 10.1022 17.6636 9.81325 17.2311C9.52427 16.7986 9.37002 16.2901 9.37002 15.77C9.37002 15.0725 9.64711 14.4035 10.1403 13.9103C10.6335 13.4171 11.3025 13.14 12 13.14Z" fill="#888888"/>
<path d="M16 2C16 1.46957 15.7893 0.960859 15.4142 0.585786C15.0391 0.210714 14.5304 0 14 0H10C9.46957 0 8.96086 0.210714 8.58579 0.585786C8.21071 0.960859 8 1.46957 8 2V9H16V2ZM14 7H10V2H14V7Z" fill="#888888"/>
<path d="M20 28V25.7C20.003 25.4335 19.9108 25.1746 19.74 24.97C18.7696 23.8889 17.5731 23.0345 16.2355 22.4677C14.8978 21.9008 13.4518 21.6353 12 21.69C10.5459 21.6391 9.09849 21.9092 7.7607 22.4814C6.42291 23.0535 5.22766 23.9134 4.26003 25C4.09003 25.2051 3.99795 25.4636 4.00003 25.73V28H5.60004V25.87C6.42054 25.0077 7.41633 24.3312 8.52032 23.8861C9.62431 23.4411 10.8109 23.2378 12 23.29C13.19 23.2391 14.377 23.4439 15.481 23.8907C16.585 24.3375 17.5804 25.0158 18.4 25.88V28H20Z" fill="#888888"/>
<path d="M22 4H18V6H22V30H2V6H6V4H2C1.46957 4 0.960859 4.21071 0.585786 4.58579C0.210714 4.96086 0 5.46957 0 6V30C0 30.5304 0.210714 31.0391 0.585786 31.4142C0.960859 31.7893 1.46957 32 2 32H22C22.5304 32 23.0391 31.7893 23.4142 31.4142C23.7893 31.0391 24 30.5304 24 30V6C24 5.46957 23.7893 4.96086 23.4142 4.58579C23.0391 4.21071 22.5304 4 22 4Z" fill="#888888"/>
</svg>
