<svg width="18" height="17" viewBox="0 0 18 17" fill="none" xmlns="http://www.w3.org/2000/svg">
<path d="M16.8444 4.55556H1.15553C0.878525 4.55556 0.612866 4.6656 0.416995 4.86147C0.221123 5.05734 0.111084 5.323 0.111084 5.6V15.7333C0.111084 16.0103 0.221123 16.276 0.416995 16.4719C0.612866 16.6677 0.878525 16.7778 1.15553 16.7778H16.8444C17.1214 16.7778 17.3871 16.6677 17.583 16.4719C17.7788 16.276 17.8889 16.0103 17.8889 15.7333V5.6C17.8889 5.323 17.7788 5.05734 17.583 4.86147C17.3871 4.6656 17.1214 4.55556 16.8444 4.55556ZM12.4333 11.1278L7.00553 13.55C6.92101 13.588 6.82834 13.6042 6.73594 13.5973C6.64354 13.5903 6.55435 13.5603 6.47649 13.5101C6.39864 13.4598 6.33459 13.3909 6.29017 13.3096C6.24576 13.2283 6.22239 13.1371 6.2222 13.0444V8.2C6.22239 8.10734 6.24576 8.0162 6.29017 7.93487C6.33459 7.85355 6.39864 7.78462 6.47649 7.73438C6.55435 7.68413 6.64354 7.65415 6.73594 7.64718C6.82834 7.64021 6.92101 7.65645 7.00553 7.69445L12.4333 10.1111C12.5319 10.1546 12.6157 10.2258 12.6745 10.316C12.7334 10.4063 12.7647 10.5117 12.7647 10.6194C12.7647 10.7272 12.7334 10.8326 12.6745 10.9229C12.6157 11.0131 12.5319 11.0843 12.4333 11.1278Z" fill="#47C8D7"/>
<path d="M15.7445 0.66667C15.7445 0.519328 15.6859 0.37802 15.5817 0.273833C15.4776 0.169646 15.3363 0.111115 15.1889 0.111115H2.96669C2.81935 0.111115 2.67804 0.169646 2.57385 0.273833C2.46966 0.37802 2.41113 0.519328 2.41113 0.66667V1.22223H15.7445V0.66667Z" fill="#47C8D7"/>
<path d="M16.8444 2.88889C16.8444 2.74155 16.7858 2.60024 16.6817 2.49605C16.5775 2.39187 16.4362 2.33334 16.2888 2.33334H1.84437C1.69703 2.33334 1.55572 2.39187 1.45154 2.49605C1.34735 2.60024 1.28882 2.74155 1.28882 2.88889V3.44445H16.8444V2.88889Z" fill="#47C8D7"/>
</svg>
