<svg width="21" height="24" viewBox="0 0 21 24" fill="none" xmlns="http://www.w3.org/2000/svg">
<path d="M15.2969 16.4706L14.3901 18.1758L18.8301 17.4499C17.9341 17.0005 16.7212 16.6793 15.2969 16.4706ZM3.85929 16.8423C1.80282 17.3847 0.5 18.2734 0.5 19.5934C0.500847 19.8776 0.562965 20.1582 0.682118 20.4162L7.808 19.2515L3.85929 16.8423ZM20.3329 18.8235L10.4153 20.44L13.0308 23.4155C17.3259 23.0308 20.5 21.6588 20.5 19.5934C20.5 19.3181 20.4407 19.0623 20.3329 18.8238V18.8235ZM8.73953 20.7188L2.03835 21.8141C3.80965 22.9115 6.936 23.5294 10.5 23.5294C10.716 23.5294 10.9271 23.5233 11.1398 23.5188L8.73953 20.7188Z" fill="#888888"/>
<path d="M10.5004 0C6.66513 0 3.51831 3.13718 3.51831 6.96376C3.51831 8.43482 3.98584 9.80518 4.77525 10.932L9.3009 18.7555L9.32019 18.7807C9.49878 19.0139 9.67313 19.1979 9.87784 19.3332C10.0825 19.4687 10.3367 19.5496 10.5861 19.5247C11.0844 19.4748 11.3896 19.1228 11.6793 18.7304L11.6948 18.7101L16.691 10.2064L16.6938 10.2009C16.811 9.98918 16.8976 9.77365 16.971 9.56376C17.308 8.73836 17.4814 7.85532 17.4816 6.96376C17.4816 3.13718 14.3357 0 10.5004 0ZM10.5004 4.01059C12.1642 4.01059 13.4628 5.30682 13.4628 6.96353C13.4628 8.62071 12.1642 9.91647 10.5004 9.91647C8.83643 9.91647 7.53713 8.62047 7.53713 6.96353C7.53713 5.30706 8.83666 4.01059 10.5004 4.01059Z" fill="#888888"/>
</svg>
