<svg width="30" height="30" viewBox="0 0 30 30" fill="none" xmlns="http://www.w3.org/2000/svg">
<path d="M24.9285 3.71432H22.0714V2.28575C22.0714 1.90687 21.9209 1.54351 21.653 1.2756C21.3851 1.00769 21.0217 0.857178 20.6428 0.857178C20.2639 0.857178 19.9006 1.00769 19.6327 1.2756C19.3648 1.54351 19.2143 1.90687 19.2143 2.28575V3.71432H10.6428V2.28575C10.6428 1.90687 10.4923 1.54351 10.2244 1.2756C9.95649 1.00769 9.59313 0.857178 9.21425 0.857178C8.83537 0.857178 8.47201 1.00769 8.2041 1.2756C7.93619 1.54351 7.78568 1.90687 7.78568 2.28575V3.71432H4.92854C3.79189 3.71432 2.70181 4.16585 1.89808 4.96958C1.09435 5.7733 0.642822 6.86339 0.642822 8.00004V25.1429C0.642822 26.2795 1.09435 27.3696 1.89808 28.1734C2.70181 28.9771 3.79189 29.4286 4.92854 29.4286H24.9285C26.0652 29.4286 27.1553 28.9771 27.959 28.1734C28.7627 27.3696 29.2143 26.2795 29.2143 25.1429V8.00004C29.2143 6.86339 28.7627 5.7733 27.959 4.96958C27.1553 4.16585 26.0652 3.71432 24.9285 3.71432ZM26.3571 25.1429C26.3571 25.5218 26.2066 25.8851 25.9387 26.153C25.6708 26.421 25.3074 26.5715 24.9285 26.5715H4.92854C4.54966 26.5715 4.18629 26.421 3.91838 26.153C3.65048 25.8851 3.49997 25.5218 3.49997 25.1429V15.1429H26.3571V25.1429ZM26.3571 12.2857H3.49997V8.00004C3.49997 7.62115 3.65048 7.25779 3.91838 6.98988C4.18629 6.72197 4.54966 6.57146 4.92854 6.57146H7.78568V8.00004C7.78568 8.37892 7.93619 8.74228 8.2041 9.01019C8.47201 9.2781 8.83537 9.42861 9.21425 9.42861C9.59313 9.42861 9.95649 9.2781 10.2244 9.01019C10.4923 8.74228 10.6428 8.37892 10.6428 8.00004V6.57146H19.2143V8.00004C19.2143 8.37892 19.3648 8.74228 19.6327 9.01019C19.9006 9.2781 20.2639 9.42861 20.6428 9.42861C21.0217 9.42861 21.3851 9.2781 21.653 9.01019C21.9209 8.74228 22.0714 8.37892 22.0714 8.00004V6.57146H24.9285C25.3074 6.57146 25.6708 6.72197 25.9387 6.98988C26.2066 7.25779 26.3571 7.62115 26.3571 8.00004V12.2857Z" fill="#212121"/>
</svg>
