<svg width="20" height="18" viewBox="0 0 20 18" fill="none" xmlns="http://www.w3.org/2000/svg">
<path d="M11.92 5C11.44 2.16 8.97 0 6 0C2.69 0 0 2.69 0 6C0 8.97 2.16 11.44 5 11.92V18H7V11.91C7 10.93 6.29 10.11 5.33 9.94C4.60634 9.81758 3.93033 9.49837 3.37601 9.01734C2.82169 8.5363 2.41044 7.91199 2.18731 7.21279C1.96418 6.5136 1.93777 5.76648 2.11098 5.05327C2.28419 4.34006 2.65033 3.68827 3.1693 3.1693C3.68827 2.65033 4.34006 2.28419 5.05327 2.11098C5.76648 1.93777 6.5136 1.96418 7.21279 2.18731C7.91199 2.41044 8.5363 2.82169 9.01734 3.37601C9.49837 3.93033 9.81758 4.60634 9.94 5.33C10.11 6.29 10.93 7 11.91 7H16.17L14.58 8.59L16 10L20 6L16 2L14.59 3.41L16.17 5H11.92Z" fill="#48C7D5"/>
</svg>
