<svg width="20" height="20" viewBox="0 0 20 20" fill="none" xmlns="http://www.w3.org/2000/svg">
<path d="M10 0C8.63636 0 7.57102 0.505571 6.80398 1.51671C6.03693 2.52785 5.65341 3.8204 5.65341 5.39435C5.64394 7.34986 6.26894 8.89995 7.52841 10.0446C7.68939 10.1973 7.74621 10.3928 7.69886 10.6313L7.37216 11.3181C7.26799 11.547 7.11411 11.7259 6.91051 11.8547C6.70691 11.9835 6.27841 12.1671 5.625 12.4056C5.59659 12.4151 4.99763 12.6107 3.82812 12.9922C2.65862 13.3738 2.03598 13.5836 1.96023 13.6218C1.16477 13.9557 0.643939 14.3038 0.397727 14.6663C0.132576 15.2673 0 16.7888 0 19.2308H20C20 16.7888 19.8674 15.2673 19.6023 14.6663C19.3561 14.3038 18.8352 13.9557 18.0398 13.6218C17.964 13.5836 17.3414 13.3738 16.1719 12.9922C15.0024 12.6107 14.4034 12.4151 14.375 12.4056C13.7216 12.1671 13.2931 11.9835 13.0895 11.8547C12.8859 11.7259 12.732 11.547 12.6278 11.3181L12.3011 10.6313C12.2538 10.3928 12.3106 10.1973 12.4716 10.0446C13.7311 8.89995 14.3561 7.34986 14.3466 5.39435C14.3466 3.8204 13.9631 2.52785 13.196 1.51671C12.429 0.505571 11.3636 0 10 0Z" fill="#47C8D7"/>
</svg>
