<svg width="16" height="26" viewBox="0 0 16 26" fill="none" xmlns="http://www.w3.org/2000/svg">
<path d="M8.7167 11.4417C5.50087 10.6058 4.4667 9.74167 4.4667 8.39583C4.4667 6.85167 5.89754 5.775 8.2917 5.775C10.8134 5.775 11.7484 6.97917 11.8334 8.75H14.9642C14.865 6.31333 13.3775 4.075 10.4167 3.3525V0.25H6.1667V3.31C3.41837 3.905 1.20837 5.69 1.20837 8.42417C1.20837 11.6967 3.9142 13.3258 7.8667 14.275C11.4084 15.125 12.1167 16.3717 12.1167 17.6892C12.1167 18.6667 11.4225 20.225 8.2917 20.225C5.37337 20.225 4.22587 18.9217 4.07004 17.25H0.953369C1.12337 20.3525 3.4467 22.095 6.1667 22.6758V25.75H10.4167V22.7042C13.1792 22.18 15.375 20.5792 15.375 17.675C15.375 13.6517 11.9325 12.2775 8.7167 11.4417Z" fill="#212121"/>
</svg>
