<svg width="20" height="16" viewBox="0 0 20 16" fill="none" xmlns="http://www.w3.org/2000/svg">
<path d="M3.125 0C2.2962 0 1.50134 0.32924 0.915291 0.915291C0.32924 1.50134 0 2.2962 0 3.125V12.875C0 13.7038 0.32924 14.4987 0.915291 15.0847C1.50134 15.6708 2.2962 16 3.125 16H16.875C17.7038 16 18.4987 15.6708 19.0847 15.0847C19.6708 14.4987 20 13.7038 20 12.875V3.125C20 2.2962 19.6708 1.50134 19.0847 0.915291C18.4987 0.32924 17.7038 0 16.875 0H3.125ZM7 6C7 6.39782 6.84196 6.77936 6.56066 7.06066C6.27936 7.34196 5.89782 7.5 5.5 7.5C5.10218 7.5 4.72064 7.34196 4.43934 7.06066C4.15804 6.77936 4 6.39782 4 6C4 5.60218 4.15804 5.22064 4.43934 4.93934C4.72064 4.65804 5.10218 4.5 5.5 4.5C5.89782 4.5 6.27936 4.65804 6.56066 4.93934C6.84196 5.22064 7 5.60218 7 6ZM9.25 7.5C8.91848 7.5 8.60054 7.3683 8.36612 7.13388C8.1317 6.89946 8 6.58152 8 6.25C8 5.91848 8.1317 5.60054 8.36612 5.36612C8.60054 5.1317 8.91848 5 9.25 5C9.58152 5 9.89946 5.1317 10.1339 5.36612C10.3683 5.60054 10.5 5.91848 10.5 6.25C10.5 6.58152 10.3683 6.89946 10.1339 7.13388C9.89946 7.3683 9.58152 7.5 9.25 7.5ZM12.5 6.625C12.5 6.28 12.78 6 13.125 6H16.375C16.5408 6 16.6997 6.06585 16.8169 6.18306C16.9342 6.30027 17 6.45924 17 6.625C17 6.79076 16.9342 6.94973 16.8169 7.06694C16.6997 7.18415 16.5408 7.25 16.375 7.25H13.125C12.78 7.25 12.5 6.97 12.5 6.625ZM13.125 8.75H16.375C16.5408 8.75 16.6997 8.81585 16.8169 8.93306C16.9342 9.05027 17 9.20924 17 9.375C17 9.54076 16.9342 9.69973 16.8169 9.81694C16.6997 9.93415 16.5408 10 16.375 10H13.125C12.9592 10 12.8003 9.93415 12.6831 9.81694C12.5658 9.69973 12.5 9.54076 12.5 9.375C12.5 9.20924 12.5658 9.05027 12.6831 8.93306C12.8003 8.81585 12.9592 8.75 13.125 8.75ZM3 9.25C3 9.05109 3.07902 8.86032 3.21967 8.71967C3.36032 8.57902 3.55109 8.5 3.75 8.5H7.25C7.44891 8.5 7.63968 8.57902 7.78033 8.71967C7.92098 8.86032 8 9.05109 8 9.25V10C8 10 8 11.75 5.5 11.75C3 11.75 3 10 3 10V9.25ZM9.5 11H8.764C8.83636 10.8408 8.89329 10.6751 8.934 10.505C8.96803 10.3611 8.98944 10.2146 8.998 10.067L8.9995 10.028V10.0015V9.25C8.9995 8.9815 8.9395 8.7275 8.8315 8.5H10.25C10.4489 8.5 10.6397 8.57902 10.7803 8.71967C10.921 8.86032 11 9.05109 11 9.25V9.5C11 9.89782 10.842 10.2794 10.5607 10.5607C10.2794 10.842 9.89782 11 9.5 11Z" fill="#47C8D7"/>
</svg>
