<svg width="20" height="20" viewBox="0 0 20 20" fill="none" xmlns="http://www.w3.org/2000/svg">
<path d="M10.7199 8.7999C10.2399 8.6799 9.7599 8.4399 9.3999 8.0799C9.0399 7.9599 8.9199 7.5999 8.9199 7.3599C8.9199 7.1199 9.0399 6.7599 9.2799 6.6399C9.6399 6.3999 9.9999 6.1599 10.3599 6.2799C11.0799 6.2799 11.6799 6.6399 12.0399 7.1199L13.1199 5.6799C12.7599 5.3199 12.3999 5.0799 12.0399 4.8399C11.6799 4.5999 11.1999 4.4799 10.7199 4.4799V2.7999H9.2799V4.4799C8.6799 4.5999 8.0799 4.9599 7.5999 5.4399C7.1199 6.0399 6.7599 6.7599 6.8799 7.4799C6.8799 8.1999 7.1199 8.9199 7.5999 9.3999C8.1999 9.9999 9.0399 10.3599 9.7599 10.7199C10.1199 10.8399 10.5999 11.0799 10.9599 11.3199C11.1999 11.5599 11.3199 11.9199 11.3199 12.2799C11.3199 12.6399 11.1999 12.9999 10.9599 13.3599C10.5999 13.7199 10.1199 13.8399 9.7599 13.8399C9.2799 13.8399 8.6799 13.7199 8.3199 13.3599C7.9599 13.1199 7.5999 12.7599 7.3599 12.3999L6.1599 13.7199C6.5199 14.1999 6.8799 14.5599 7.3599 14.9199C7.9599 15.2799 8.6799 15.6399 9.3999 15.6399V17.1999H10.7199V15.3999C11.4399 15.2799 12.0399 14.9199 12.5199 14.4399C13.1199 13.8399 13.4799 12.8799 13.4799 12.0399C13.4799 11.3199 13.2399 10.4799 12.6399 9.9999C12.0399 9.3999 11.4399 9.0399 10.7199 8.7999ZM9.9999 0.399902C4.7199 0.399902 0.399902 4.7199 0.399902 9.9999C0.399902 15.2799 4.7199 19.5999 9.9999 19.5999C15.2799 19.5999 19.5999 15.2799 19.5999 9.9999C19.5999 4.7199 15.2799 0.399902 9.9999 0.399902ZM9.9999 18.2799C5.4399 18.2799 1.7199 14.5599 1.7199 9.9999C1.7199 5.4399 5.4399 1.7199 9.9999 1.7199C14.5599 1.7199 18.2799 5.4399 18.2799 9.9999C18.2799 14.5599 14.5599 18.2799 9.9999 18.2799Z" fill="black" fill-opacity="0.44"/>
</svg>
