<svg width="27" height="39" viewBox="0 0 27 39" fill="none" xmlns="http://www.w3.org/2000/svg">
<path d="M13.5 0C11.429 0 9.83408 1.72791 9.83408 3.79397C9.83408 5.78396 9.82013 7.52509 9.82013 7.52509H6.13786C6.06855 7.52509 6.00149 7.53275 5.93536 7.54371H4.91121V11.1212H22.0888V7.54371H21.0646C20.9985 7.53275 20.9315 7.52509 20.8621 7.52509H17.1799C17.1799 7.52509 17.2218 5.94896 17.2218 3.80561C17.2218 1.81558 15.571 0 13.5 0ZM0 3.62872V38.1352H27V3.62872H18.4462V6.12855H24.5281V35.6307H2.47424V6.12855H8.55388V3.62872H0ZM13.5 3.67525C14.1785 3.67525 14.7267 4.22122 14.7267 4.89723C14.7267 5.57448 14.1785 6.12152 13.5 6.12152C12.8215 6.12152 12.2734 5.57444 12.2734 4.89723C12.2734 4.22125 12.8215 3.67525 13.5 3.67525ZM4.91121 13.5466V14.7709H6.13786V13.5466H4.91121ZM8.59345 13.5698V14.7941H22.0888V13.5698H8.59345ZM4.91121 18.1645V19.3888H6.13786V18.1645H4.91121ZM8.59345 18.1878V19.4144H22.0888V18.1878H8.59345ZM4.91121 22.7824V24.0067H6.13786V22.7824H4.91121ZM8.59345 22.808V24.0323H22.0888V22.808H8.59345ZM4.91121 27.4027V28.627H6.13786V27.4027H4.91121ZM8.59345 27.4283V28.6526H22.0888V27.4283H8.59345ZM4.91121 32.0206V33.2449H6.13786V32.0206H4.91121ZM8.59345 32.0462V33.2705H22.0888V32.0462H8.59345Z" fill="black"/>
</svg>
