<svg width="20" height="25" viewBox="0 0 20 25" fill="none" xmlns="http://www.w3.org/2000/svg">
<path d="M1.25 0H18.75C19.0815 0 19.3995 0.131696 19.6339 0.366116C19.8683 0.600537 20 0.918479 20 1.25V23.75C20 24.0815 19.8683 24.3995 19.6339 24.6339C19.3995 24.8683 19.0815 25 18.75 25H1.25C0.918479 25 0.600537 24.8683 0.366117 24.6339C0.131696 24.3995 0 24.0815 0 23.75V1.25C0 0.918479 0.131696 0.600537 0.366117 0.366116C0.600537 0.131696 0.918479 0 1.25 0ZM6.25 11.25V7.5L0 12.5L6.25 17.5V13.75H13.75V11.25H6.25Z" fill="#47C8D7"/>
</svg>
