<svg width="20" height="18" viewBox="0 0 20 18" fill="none" xmlns="http://www.w3.org/2000/svg">
<path d="M10 3C10.1978 3 10.3911 3.05865 10.5556 3.16853C10.72 3.27841 10.8482 3.43459 10.9239 3.61732C10.9996 3.80004 11.0194 4.00111 10.9808 4.19509C10.9422 4.38907 10.847 4.56725 10.7071 4.70711C10.5673 4.84696 10.3891 4.9422 10.1951 4.98079C10.0011 5.01937 9.80004 4.99957 9.61732 4.92388C9.43459 4.84819 9.27841 4.72002 9.16853 4.55557C9.05865 4.39112 9 4.19778 9 4C9 3.73478 9.10536 3.48043 9.29289 3.29289C9.48043 3.10536 9.73478 3 10 3ZM4 11H16V14H4V11ZM18 3H14V0H6V3H2C1.46957 3 0.960859 3.21071 0.585786 3.58579C0.210714 3.96086 0 4.46957 0 5V16C0 16.5304 0.210714 17.0391 0.585786 17.4142C0.960859 17.7893 1.46957 18 2 18H18C18.5304 18 19.0391 17.7893 19.4142 17.4142C19.7893 17.0391 20 16.5304 20 16V5C20 4.46957 19.7893 3.96086 19.4142 3.58579C19.0391 3.21071 18.5304 3 18 3ZM8 2H12V7H8V2ZM18 16H2V7H6C6 7.53043 6.21071 8.03914 6.58579 8.41421C6.96086 8.78929 7.46957 9 8 9H12C12.5304 9 13.0391 8.78929 13.4142 8.41421C13.7893 8.03914 14 7.53043 14 7H18V16Z" fill="black" fill-opacity="0.45"/>
</svg>
